<svg width="52" height="15" viewBox="0 0 52 15" fill="none" xmlns="http://www.w3.org/2000/svg">
<path fill-rule="evenodd" clip-rule="evenodd" d="M2.81267 0.0515626C1.75121 0.50625 0.589102 1.78594 0.223082 3.39375C-0.243592 5.42813 1.69174 6.28594 1.85187 6.00469C2.03488 5.67656 1.50415 5.56406 1.39435 4.50469C1.25709 3.14531 1.87475 1.61719 2.65254 0.951563C2.79894 0.825 2.78979 0.998438 2.78979 1.31719L2.76234 8.09531C2.76234 9.54844 2.70286 10.0031 2.59763 10.4578C2.4924 10.9172 2.32312 11.2266 2.44665 11.3484C2.59306 11.4797 3.21529 11.1609 3.57216 10.6453C3.97991 10.0081 4.19187 9.2603 4.18067 8.49844C4.21269 7.53281 4.20812 6 4.21269 5.12813C4.21269 4.33125 4.22642 1.98281 4.19897 0.571875C4.18982 0.225 3.25189 -0.135937 2.81267 0.05625V0.0515626ZM40.3891 6.83906C40.3745 7.44716 40.2375 8.04561 39.9865 8.59688C39.5976 9.40313 38.7832 9.65156 38.4355 8.49375C38.2525 7.86563 38.2388 6.81094 38.376 5.92969C38.5133 5.03906 38.8976 4.35938 39.5336 4.42031C40.165 4.48125 40.4578 5.31094 40.3891 6.83906ZM29.7975 11.5172C29.7883 12.7688 29.5961 13.8656 29.1844 14.1891C28.5942 14.6391 27.8118 14.2969 27.9719 13.3828C28.1138 12.5766 28.7955 11.7516 29.802 10.7391L29.7975 11.5172ZM29.6373 6.82969C29.6105 7.43914 29.474 8.03827 29.2347 8.59688C28.8458 9.40313 28.0268 9.65156 27.6837 8.49375C27.4549 7.70156 27.5098 6.67969 27.6242 6.03281C27.7752 5.19844 28.1366 4.42031 28.7817 4.42031C29.4131 4.42031 29.7242 5.12344 29.6373 6.82969ZM23.5019 6.82031C23.4903 7.4358 23.3548 8.04221 23.1039 8.60156C22.7012 9.39844 21.9006 9.65156 21.5483 8.49375C21.2966 7.66406 21.3836 6.525 21.4888 5.91563C21.6444 5.00156 22.0378 4.35938 22.6463 4.41563C23.2777 4.48125 23.5797 5.30625 23.5019 6.82031ZM51.6168 7.66875C51.4658 7.66875 51.3926 7.83281 51.3377 8.10469C51.1364 9.05156 50.9259 9.26719 50.6514 9.26719C50.3494 9.26719 50.0749 8.79844 50.0017 7.86094C49.9468 7.12031 49.956 5.76094 50.0292 4.40625C50.0429 4.12969 49.9651 3.85781 49.2377 3.58594C48.9265 3.46875 48.469 3.29531 48.2448 3.85781C47.7918 4.9281 47.472 6.05256 47.2932 7.20469C47.2932 7.23281 47.2566 7.2375 47.2474 7.17656C47.2154 6.76875 47.1285 6.02344 47.1193 4.4625C47.1193 4.15781 47.0553 3.9 46.7259 3.68906C46.5108 3.54844 45.8657 3.30938 45.6278 3.59531C45.4311 3.82969 45.1977 4.47188 44.9552 5.22656L44.6167 6.25781L44.6212 3.97031C44.6212 3.73594 44.4657 3.65625 44.4154 3.64219C44.1469 3.55736 43.8711 3.49928 43.5918 3.46875C43.3722 3.46875 43.3173 3.59531 43.3173 3.78281C43.3173 3.80625 43.2807 5.9625 43.2807 7.47188V7.6875C43.1572 8.38125 42.7591 9.32344 42.3245 9.32344C41.8898 9.32344 41.6839 8.92969 41.6839 7.12969C41.6839 6.07969 41.716 5.625 41.7297 4.86563C41.7388 4.425 41.7571 4.09219 41.7571 4.01719C41.7526 3.78281 41.3591 3.66563 41.1761 3.61875C40.9931 3.57656 40.8284 3.55781 40.7048 3.56719C40.5218 3.57656 40.3983 3.69375 40.3983 3.85781V4.11563C40.2008 3.79565 39.9069 3.55043 39.561 3.41719C38.9022 3.21563 38.2159 3.39375 37.6989 4.13437C37.2526 4.7884 36.99 5.55526 36.9394 6.35156C36.8662 7.05469 36.8937 7.7625 37.0172 8.36719C36.8662 9.04219 36.578 9.32344 36.2668 9.32344C35.8139 9.32344 35.4891 8.56406 35.5257 7.26094C35.5531 6.39844 35.7178 5.79375 35.9008 4.92188C35.9786 4.54688 35.9191 4.35938 35.759 4.17187C35.6126 3.99844 35.3015 3.90938 34.8485 4.01719C34.5283 4.09219 34.0707 4.17656 33.659 4.2375C33.659 4.2375 33.6818 4.13906 33.7047 3.95625C33.8099 3.00469 32.7988 3.07969 32.474 3.38438C32.2818 3.56719 32.1537 3.77813 32.0988 4.16719C32.021 4.77656 32.5106 5.0625 32.5106 5.0625C32.1962 6.2792 31.6691 7.42745 30.955 8.45156V8.12344C30.9504 6.54844 30.9687 5.31094 30.9779 4.86563C30.987 4.425 31.0053 4.10156 31.0053 4.02188C31.0053 3.85313 30.9047 3.7875 30.7033 3.70781C30.5203 3.63281 30.3099 3.58594 30.0903 3.56719C29.8158 3.54375 29.6465 3.69375 29.651 3.87188V4.11563C29.4527 3.79463 29.1569 3.54925 28.8092 3.41719C28.1504 3.21563 27.4641 3.39375 26.9471 4.13437C26.5168 4.79494 26.2556 5.55579 26.1876 6.34688C26.119 7.08281 26.1281 7.70625 26.2288 8.24063C26.1235 8.77031 25.8216 9.31875 25.483 9.31875C25.0484 9.31875 24.7967 8.92969 24.7967 7.12969C24.7967 6.07969 24.8287 5.625 24.8425 4.86563C24.8516 4.425 24.8699 4.09219 24.8699 4.01719C24.8699 3.78281 24.4719 3.66563 24.2889 3.61875C24.0967 3.57188 23.9274 3.55781 23.8039 3.57188C23.6346 3.58125 23.5156 3.73594 23.5156 3.85313V4.11563C23.3173 3.79463 23.0215 3.54925 22.6738 3.41719C22.015 3.21563 21.3333 3.39844 20.8117 4.13437C20.4685 4.61719 20.194 5.15156 20.0522 6.3375C20.0138 6.6547 19.9954 6.97412 19.9973 7.29375C19.86 8.14219 19.2607 9.12188 18.7711 9.12188C18.4829 9.12188 18.2084 8.55469 18.2084 7.34063C18.2084 5.72344 18.309 3.42188 18.3227 3.20156L19.0639 3.1875C19.375 3.1875 19.6541 3.19219 20.0659 3.16875C20.2718 3.15938 20.4685 2.4 20.2581 2.30625C20.162 2.26406 19.4803 2.22656 19.2058 2.22188C18.977 2.21719 18.3456 2.17031 18.3456 2.17031C18.3456 2.17031 18.4051 0.642188 18.4188 0.482813C18.428 0.342188 18.2587 0.276563 18.158 0.234375C17.9322 0.141251 17.6976 0.0721381 17.458 0.028125C17.1103 -0.0421875 16.9547 0.028125 16.9227 0.328125C16.877 0.782813 16.8541 2.11875 16.8541 2.11875C16.5979 2.11875 15.724 2.06719 15.4724 2.06719C15.2345 2.06719 14.9782 3.10781 15.3077 3.12188L16.7717 3.16406L16.758 6.225V6.44531C16.5155 7.725 15.6737 8.41406 15.6737 8.41406C15.8567 7.57031 15.4815 6.9375 14.8181 6.39844C14.571 6.20156 14.0861 5.82656 13.5416 5.41406C13.5416 5.41406 13.8573 5.09531 14.1364 4.45781C14.3331 4.00781 14.3423 3.49219 13.8573 3.37969C13.0566 3.1875 12.3932 3.7875 12.1965 4.43438C12.1197 4.64378 12.1005 4.87073 12.1408 5.09057C12.1811 5.3104 12.2795 5.5147 12.4253 5.68125L12.4939 5.77031C12.3109 6.12656 12.0638 6.60469 11.8534 6.97969C11.2723 8.01094 10.8285 8.83125 10.4945 8.83125C10.2291 8.83125 10.2337 8.00156 10.2337 7.22344C10.2337 6.55313 10.2795 5.54531 10.3206 4.50469C10.3344 4.15781 10.1651 3.96094 9.88142 3.78281C9.65586 3.62295 9.40035 3.51281 9.13108 3.45938C8.81081 3.45938 7.89576 3.50625 7.02647 6.07031C6.92124 6.39375 6.7062 6.97969 6.7062 6.97969L6.7245 3.9C6.7245 3.825 6.6879 3.75938 6.60097 3.7125C6.32792 3.56379 6.02668 3.47743 5.71795 3.45938C5.55324 3.45938 5.47089 3.53906 5.47089 3.69375L5.43886 8.52188C5.43886 8.8875 5.44801 9.31406 5.48461 9.50156C5.52121 9.68906 5.57612 9.83906 5.64932 9.92813C5.71795 10.0219 5.8003 10.0875 5.93299 10.1156C6.06109 10.1438 6.74738 10.2328 6.78398 9.96563C6.82973 9.64219 6.82973 9.29531 7.19118 7.99688C7.74936 5.97656 8.4814 4.9875 8.82911 4.64063C8.88859 4.575 8.95722 4.575 8.95265 4.67344L8.85199 7.16719C8.76049 9.68438 9.20886 10.1484 9.84482 10.1484C10.3344 10.1484 11.0252 9.65156 11.7664 8.39531L13.0017 6.28594L13.7246 6.97031C14.3103 7.53281 14.5024 8.07656 14.3743 8.5875C14.2782 8.97656 13.9076 9.38438 13.2579 8.99063C13.0658 8.87344 12.9834 8.78438 12.7958 8.65781C12.6906 8.5875 12.5351 8.56406 12.439 8.63906C12.1965 8.82656 12.0547 9.07031 11.9769 9.36563C11.8991 9.65156 12.1828 9.80625 12.4756 9.9375C12.7272 10.0547 13.2717 10.1578 13.6194 10.1719C14.9645 10.2188 16.0443 9.50625 16.7946 7.66875C16.9319 9.25313 17.5038 10.1531 18.4966 10.1531C19.16 10.1531 19.828 9.27188 20.1208 8.40938C20.2032 8.76094 20.3267 9.06563 20.4868 9.32813C21.2555 10.5703 22.7424 10.2984 23.4882 9.24375C23.717 8.92031 23.7536 8.80313 23.7536 8.80313C23.7759 9.15802 23.9257 9.49188 24.1741 9.7403C24.4225 9.98872 24.7518 10.1341 25.0987 10.1484C25.602 10.1484 26.119 9.90469 26.485 9.06563C26.5262 9.15938 26.5765 9.24375 26.6222 9.32813C27.3909 10.5703 28.8778 10.2984 29.6236 9.24375L29.7151 9.1125L29.738 9.76875L29.0517 10.4109C27.8987 11.4891 27.0203 12.3094 26.9562 13.2656C26.8739 14.4844 27.8392 14.9344 28.5713 14.9953C28.9374 15.014 29.3018 14.9322 29.6267 14.7583C29.9517 14.5844 30.2254 14.3248 30.4197 14.0063C30.7766 13.4672 31.0145 12.3047 30.9962 11.1563L30.9687 9.4875C32.0647 8.18909 32.9065 6.68679 33.4485 5.0625C33.4485 5.0625 33.874 5.06719 34.3269 5.03906C34.4733 5.02969 34.5145 5.05781 34.4871 5.16563C34.4551 5.29688 33.9152 7.43438 34.4093 8.85938C34.7479 9.83438 35.5074 10.1484 35.9649 10.1484C36.491 10.1484 36.9989 9.74063 37.2688 9.13125L37.3741 9.32813C38.1427 10.5703 39.6251 10.2984 40.3754 9.24375C40.5447 9.00938 40.6408 8.80313 40.6408 8.80313C40.8055 9.83438 41.5879 10.1531 42.0362 10.1531C42.5029 10.1531 42.9513 9.95625 43.3081 9.08438C43.3219 9.46875 43.3447 9.78281 43.3813 9.88125C43.4042 9.94219 43.5369 10.0219 43.6376 10.0547C44.0631 10.2141 44.4977 10.1391 44.6624 10.1063C44.7722 10.0828 44.8591 9.98906 44.8729 9.75469C44.9049 9.13125 44.8866 8.08594 45.0696 7.3125C45.3762 6.00469 45.6644 5.49844 45.8016 5.25C45.8794 5.10938 45.9664 5.08594 45.9709 5.23594C45.9755 5.53594 45.9892 6.41719 46.1082 7.60313C46.1997 8.475 46.3187 8.99063 46.4056 9.15C46.6664 9.61875 46.9866 9.64219 47.2429 9.64219C47.4076 9.64219 47.7553 9.59531 47.7233 9.3C47.7095 9.15469 47.7324 8.25937 48.0435 6.975C48.2403 6.13594 48.5697 5.38125 48.6886 5.1C48.7344 5.00156 48.7573 5.08125 48.7573 5.1C48.7298 5.67188 48.6749 7.56094 48.9037 8.59688C49.2148 9.99375 50.1161 10.1531 50.4318 10.1531C51.1044 10.1531 51.6534 9.62813 51.8364 8.25469C51.8821 7.92656 51.8135 7.66875 51.6168 7.66875Z" fill="black"/>
</svg>
